<svg xmlns="http://www.w3.org/2000/svg" width="49" height="49" viewBox="0 0 49 49" fill="none">
  <path d="M12.6031 26.549L12.9502 27.3077C14.4353 30.38 16.7748 32.9588 19.6874 34.7355L20.2282 35.0523C20.4795 35.1936 20.4795 35.5554 20.2282 35.6969C20.0458 35.7994 19.8655 35.9051 19.6874 36.0138C16.7748 37.7902 14.4353 40.3693 12.9502 43.4416L12.6031 44.2C12.4671 44.5061 12.0328 44.5061 11.8968 44.2L11.5497 43.4416C10.0647 40.3693 7.72515 37.7902 4.81259 36.0138C4.63446 35.9051 4.45416 35.7994 4.27179 35.6969C4.02049 35.5554 4.02049 35.1936 4.27179 35.0523L4.81259 34.7355C7.72515 32.9588 10.0647 30.38 11.5497 27.3077L11.8968 26.549C12.0328 26.2432 12.4671 26.2432 12.6031 26.549ZM30.784 5.57355C30.9817 6.01829 31.1795 6.46276 31.3914 6.901C33.9903 12.2775 38.0844 16.7907 43.1814 19.8996C43.4932 20.0897 43.8086 20.2746 44.1279 20.4542C44.5677 20.7015 44.5677 21.3348 44.1279 21.582C43.8086 21.7617 43.4932 21.9465 43.1814 22.1368C38.0844 25.2454 33.9903 29.7587 31.3914 35.1352C31.1795 35.5734 30.9817 36.0178 30.784 36.4627C30.546 36.9981 29.7861 36.9981 29.548 36.4627C29.3504 36.0178 29.1525 35.5734 28.9406 35.1352C26.3418 29.7587 22.2476 25.2454 17.1506 22.1368C16.8388 21.9465 16.5233 21.7617 16.2042 21.582C15.7644 21.3348 15.7644 20.7015 16.2042 20.4542C16.5233 20.2746 16.8388 20.0897 17.1506 19.8996C22.2476 16.7907 26.3418 12.2775 28.9406 6.901C29.1521 6.46345 29.3504 6.01843 29.548 5.57355C29.7861 5.03808 30.546 5.03808 30.784 5.57355Z" fill="#ffc000"/>
</svg>